<svg version="1.1" id="Layer_1" xmlns="http://www.w3.org/2000/svg"  width="48"
                        height="48" xmlns:xlink="http://www.w3.org/1999/xlink" x="0px" y="0px"
	  viewBox="0 0 68 117" disable-background="0 0 0 0 " xml:space="preserve">
<path fill="none" opacity="1.000000" stroke="none" 
	d="
M32.000000,118.000000 
	C21.333334,118.000000 11.166667,118.000000 1.000000,118.000000 
	C1.000000,79.000000 1.000000,40.000000 1.000000,1.000000 
	C23.666666,1.000000 46.333332,1.000000 69.000000,1.000000 
	C69.000000,40.000000 69.000000,79.000000 69.000000,118.000000 
	C56.833332,118.000000 44.666668,118.000000 32.000000,118.000000 
M44.052570,74.174583 
	C43.058990,71.858635 42.573650,69.085350 40.977547,67.311577 
	C35.977161,61.754589 30.658413,56.469360 25.250420,51.301304 
	C23.164524,49.307953 23.042093,47.614433 24.290342,45.217026 
	C27.500294,39.051941 34.068275,35.788109 41.480305,36.879303 
	C47.590122,37.778782 52.868454,43.015518 54.092178,49.410839 
	C54.404469,51.042908 54.145420,53.145435 55.082024,54.213596 
	C56.544735,55.881771 58.888641,57.951405 60.701584,57.811298 
	C62.549831,57.668472 64.525627,55.285717 65.820702,53.444206 
	C66.513947,52.458458 66.031517,50.528904 65.840225,49.056377 
	C64.122299,35.832211 52.995464,25.574617 39.873978,25.057091 
	C26.201178,24.517818 13.828026,33.970085 11.560626,47.383381 
	C11.087557,50.181927 12.205909,54.159843 14.079254,56.277737 
	C20.238386,63.240852 27.022814,69.659058 33.684765,76.166061 
	C37.483688,79.876633 40.497459,79.416801 44.052570,74.174583 
M43.472275,98.162582 
	C55.464630,95.614136 62.657940,88.161034 65.636429,76.429878 
	C66.516762,72.962593 65.924530,70.073074 63.117054,67.402924 
	C56.477924,61.088531 50.093208,54.505569 43.641880,47.995277 
	C40.830940,45.158646 37.731083,43.776649 34.586758,47.090614 
	C31.567240,50.273041 32.667343,53.341988 35.619202,56.201782 
	C41.004288,61.418907 46.108822,66.930923 51.592133,72.038948 
	C54.064503,74.342102 54.042122,76.293381 52.496494,78.948715 
	C48.991497,84.970207 42.452358,88.134674 35.534035,86.951912 
	C28.803440,85.801239 23.859060,80.345612 22.856829,72.751076 
	C22.327694,68.741501 21.030569,65.426147 16.286213,65.588150 
	C12.461110,65.718765 10.582791,69.130325 11.110243,74.267929 
	C12.699332,89.746368 27.132805,100.739281 43.472275,98.162582 
z"/>
<path fill="#b552e5" opacity="1.000000" stroke="none" 
	d="
M43.967098,74.560013 
	C40.497459,79.416801 37.483688,79.876633 33.684765,76.166061 
	C27.022814,69.659058 20.238386,63.240852 14.079254,56.277737 
	C12.205909,54.159843 11.087557,50.181927 11.560626,47.383381 
	C13.828026,33.970085 26.201178,24.517818 39.873978,25.057091 
	C52.995464,25.574617 64.122299,35.832211 65.840225,49.056377 
	C66.031517,50.528904 66.513947,52.458458 65.820702,53.444206 
	C64.525627,55.285717 62.549831,57.668472 60.701584,57.811298 
	C58.888641,57.951405 56.544735,55.881771 55.082024,54.213596 
	C54.145420,53.145435 54.404469,51.042908 54.092178,49.410839 
	C52.868454,43.015518 47.590122,37.778782 41.480305,36.879303 
	C34.068275,35.788109 27.500294,39.051941 24.290342,45.217026 
	C23.042093,47.614433 23.164524,49.307953 25.250420,51.301304 
	C30.658413,56.469360 35.977161,61.754589 40.977547,67.311577 
	C42.573650,69.085350 43.058990,71.858635 43.967098,74.560013 
z"/>
<path fill="#b552e5" opacity="1.000000" stroke="none" 
	d="
M43.057045,98.222893 
	C27.132805,100.739281 12.699332,89.746368 11.110243,74.267929 
	C10.582791,69.130325 12.461110,65.718765 16.286213,65.588150 
	C21.030569,65.426147 22.327694,68.741501 22.856829,72.751076 
	C23.859060,80.345612 28.803440,85.801239 35.534035,86.951912 
	C42.452358,88.134674 48.991497,84.970207 52.496494,78.948715 
	C54.042122,76.293381 54.064503,74.342102 51.592133,72.038948 
	C46.108822,66.930923 41.004288,61.418907 35.619202,56.201782 
	C32.667343,53.341988 31.567240,50.273041 34.586758,47.090614 
	C37.731083,43.776649 40.830940,45.158646 43.641880,47.995277 
	C50.093208,54.505569 56.477924,61.088531 63.117054,67.402924 
	C65.924530,70.073074 66.516762,72.962593 65.636429,76.429878 
	C62.657940,88.161034 55.464630,95.614136 43.057045,98.222893 
z"/>
</svg>