<svg class=" " viewBox="0 0 1600 800"><path d="M4,38.152L15.213,4" stroke="#ffffff" stroke-width="1" fill="none" stroke-linecap="round" stroke-miterlimit="4"></path><path d="M1251.565,796C1251.565,796,1233.695,781.131,1222.111,776.849C1208.477,771.809,1189.942,770.348,1173.869,770.46C1157.781,770.573,1140.679,773.085,1125.628,777.538C1111.294,781.779,1085.427,795.959,1085.427,795.959" stroke="#ffffff" stroke-width="1" fill="none" stroke-linecap="round" stroke-miterlimit="4"></path><path d="M4,90.332C4,90.332,44.68,64.296,57.304,48.485C68.063,35.009,78.372,4,78.372,4" stroke="#ffffff" stroke-width="1" fill="none" stroke-linecap="round" stroke-miterlimit="4"></path><path d="M1361.894,796C1361.894,796,1365.128,769.667,1360.193,759.596C1355.196,749.399,1343.553,741.65,1331.766,735.354C1317.406,727.682,1297.718,723.766,1278.392,720.286C1256.28,716.304,1230.915,714.681,1206.03,714.397C1179.562,714.096,1150.168,715.452,1124.032,719.192C1099.532,722.697,1074.68,727.9,1053.686,735.354C1035.358,741.86,1018.168,749.364,1004.314,759.596C991.659,768.942,972.864,793.017,972.864,793.017" stroke="#ffffff" stroke-width="1" fill="none" stroke-linecap="round" stroke-miterlimit="4"></path><path d="M4,128.026C4,128.026,72.457,87.972,94.782,64.646C112.764,45.858,133.28,4,133.28,4" stroke="#ffffff" stroke-width="1" fill="none" stroke-linecap="round" stroke-miterlimit="4"></path><path d="M875.769,796C875.769,796,883.75,763.872,894.995,751.515C908.556,736.613,932.375,726.974,956.784,717.595C988.05,705.58,1029.746,696.987,1069.347,691.035C1112.445,684.558,1161.158,681.95,1206.03,681.913C1249.56,681.876,1296.075,683.96,1334.673,690.281C1367.194,695.606,1401.973,701.774,1423.116,713.777C1437.93,722.188,1451.246,734.617,1455.276,745.153C1458.133,752.622,1455.975,759.985,1453.762,767.677C1451.121,776.856,1438.54,796,1438.54,796" stroke="#ffffff" stroke-width="1" fill="none" stroke-linecap="round" stroke-miterlimit="4"></path><path d="M4,169.235C4,169.235,97.872,105.787,126.131,80.808C143.229,65.694,153.592,54.1,163.75,40.404C172.621,28.443,184.911,4,184.911,4" stroke="#ffffff" stroke-width="1" fill="none" stroke-linecap="round" stroke-miterlimit="4"></path><path d="M744.186,796C744.186,796,691.843,756.837,681.187,743.434C676.181,737.138,673.027,732.662,673.017,727.273C673.007,721.888,675.937,715.425,681.114,711.111C689.214,704.36,702.638,702.875,723.618,698.74C779.614,687.705,948.628,672.252,1037.186,665.399C1102.026,660.38,1148.475,656.98,1206.03,657.195C1266.276,657.421,1337.635,659.496,1390.955,667.568C1432.627,673.877,1475.335,683.211,1500.722,694.949C1516.121,702.07,1527.507,709.888,1534.553,719.192C1540.099,726.515,1543.398,735.367,1543.328,743.434C1543.257,751.528,1538.846,759.698,1534.071,767.677C1528.334,777.265,1509.539,796,1509.539,796" stroke="#ffffff" stroke-width="1" fill="none" stroke-linecap="round" stroke-miterlimit="4"></path><path d="M4,373.068C4,373.068,19.159,353.828,21.912,339.394C26.127,317.29,9.307,274.136,11.914,250.505C13.717,234.171,18.216,222.816,25.835,210.101C34.487,195.662,46.689,185.419,63.316,169.697C90.928,143.589,149.583,103.726,180.351,72.727C203.856,49.045,236.432,4,236.432,4" stroke="#ffffff" stroke-width="1" fill="none" stroke-linecap="round" stroke-miterlimit="4"></path><path d="M542.986,796C542.986,796,516.344,762.702,510.611,743.434C504.744,723.714,503.626,697.917,508.907,678.788C513.804,661.047,525.319,642.728,538.693,631.809C551.577,621.291,563.786,616.357,586.935,613.451C640.38,606.74,764.764,640.545,860.302,644.698C964.893,649.245,1091.503,635.648,1189.95,635.82C1269.843,635.96,1346.588,636.919,1407.035,642.428C1450.803,646.417,1486.211,650.22,1519.598,659.595C1548.072,667.59,1596,691.549,1596,691.549" stroke="#ffffff" stroke-width="1" fill="none" stroke-linecap="round" stroke-miterlimit="4"></path><path d="M1585.34,796L1596,787.51" stroke="#ffffff" stroke-width="1" fill="none" stroke-linecap="round" stroke-miterlimit="4"></path><path d="M988.945,82.12C998.495,94.747,1015.588,110.349,1029.146,116.186C1039.77,120.759,1052.318,123.041,1061.307,119.739C1070.149,116.491,1078.672,106.964,1082.807,96.97C1087.953,84.532,1089.593,61.737,1084.16,48.485C1079.056,36.034,1066.388,24.319,1053.266,18.838C1038.219,12.552,1010.633,13.104,996.985,17.342C987.804,20.193,980.227,26.584,976.382,32.323C973.442,36.712,972.318,41.029,972.864,46.799C973.746,56.112,980.749,71.284,988.945,82.12" stroke="#ffffff" stroke-width="1" fill="none" stroke-linecap="round" stroke-miterlimit="4"></path><path d="M4,424.056C4,424.056,45.825,407.475,60.052,395.96C71.61,386.604,81.224,375.147,85.9,363.636C90.041,353.44,89.769,344.446,89.048,331.313C87.898,310.373,70.701,273.856,72.094,250.505C73.191,232.121,76.095,221.732,88.486,202.02C117.631,155.655,290.899,4,290.899,4" stroke="#ffffff" stroke-width="1" fill="none" stroke-linecap="round" stroke-miterlimit="4"></path><path d="M438.213,796C438.213,796,429.436,722.108,430.695,686.869C431.886,653.527,435.211,615.952,444.38,589.899C451.339,570.125,459.856,552.702,473.218,541.414C486.164,530.478,504.241,525.044,522.613,522.333C544.12,519.159,566.657,521.436,594.975,527.818C638.611,537.651,706.38,575.398,755.779,589.751C796.1,601.466,816.251,606.849,868.342,612.322C982.855,624.355,1314.33,613.286,1423.116,618.695C1468.568,620.956,1489.452,622.555,1519.598,627.196C1546.693,631.368,1596,644.095,1596,644.095" stroke="#ffffff" stroke-width="1" fill="none" stroke-linecap="round" stroke-miterlimit="4"></path><path d="M1168.806,4C1168.806,4,1177.384,59.116,1176.89,88.889C1176.34,122.071,1175.866,169.759,1163.357,193.939C1154.653,210.765,1141.174,220.538,1125.628,228.674C1108.004,237.898,1081.256,242.543,1061.307,243.076C1044.12,243.536,1026.914,240.896,1013.065,234.956C1000.511,229.571,993.232,224.096,980.905,210.83C953.903,181.775,891.804,86.776,876.763,48.485C869.482,29.948,868.751,4,868.751,4" stroke="#ffffff" stroke-width="1" fill="none" stroke-linecap="round" stroke-miterlimit="4"></path><path d="M4,457.232C4,457.232,87.466,439.778,114.438,428.283C131.638,420.952,145.82,414.566,154.033,404.04C161.048,395.05,164.137,385.765,164.165,371.717C164.215,345.451,131.366,288.628,129.183,258.586C127.779,239.246,129.447,226.412,136.752,210.101C146.288,188.807,165.892,169.978,189.813,145.455C228.297,106.001,353.671,4,353.671,4" stroke="#ffffff" stroke-width="1" fill="none" stroke-linecap="round" stroke-miterlimit="4"></path><path d="M369.992,796C369.992,796,374.8,708.604,373.314,662.626C371.716,613.204,349.9,540.035,359.531,509.091C364.517,493.069,373.966,485.207,385.93,477.299C400.193,467.87,420.313,464.463,442.211,460.478C471.456,455.157,513.388,452.299,546.734,453.194C577.487,454.019,611.77,457.91,635.176,464.15C651.548,468.514,658.969,472.325,675.377,481.041C704.767,496.653,752.013,539.804,792.495,557.576C829.943,574.016,866.37,580.642,908.543,587.028C957.45,594.435,1003.65,593.723,1069.347,595.405C1173.152,598.063,1375.584,590.356,1471.357,595.064C1524.816,597.692,1596,607.455,1596,607.455" stroke="#ffffff" stroke-width="1" fill="none" stroke-linecap="round" stroke-miterlimit="4"></path><path d="M779.131,4C779.131,4,853.965,92.379,880.293,137.374C903.686,177.354,912.621,234.972,932.963,258.586C944.931,272.479,956.904,277.573,971.759,282.828C988.458,288.736,1006.25,290.319,1029.146,289.836C1063.53,289.111,1127.66,277.812,1157.789,268.59C1175.162,263.273,1185.894,258.041,1197.189,250.505C1207.44,243.666,1217.084,236.411,1223.4,226.263C1230.262,215.236,1232.528,204.433,1235.413,185.859C1241.406,147.274,1238.901,4,1238.901,4" stroke="#ffffff" stroke-width="1" fill="none" stroke-linecap="round" stroke-miterlimit="4"></path><path d="M4,485.495C4,485.495,67.513,477.475,96.482,476.433C122.05,475.514,147.314,475.279,168.844,478.301C186.708,480.809,202.272,484.065,217.085,490.781C231.722,497.417,244.886,506.076,257.286,518.175C271.991,532.522,286.836,553.698,297.182,573.737C307.525,593.769,314.637,615.308,319.361,638.384C324.505,663.509,326.299,692.653,325.3,719.192C324.322,745.175,313.801,796,313.801,796" stroke="#ffffff" stroke-width="1" fill="none" stroke-linecap="round" stroke-miterlimit="4"></path><path d="M1596,570.336C1596,570.336,1291.366,578.53,1173.869,576.192C1089.554,574.514,1009.18,571.464,956.784,564.531C926.565,560.532,907.602,556.599,886.052,549.495C866.671,543.106,848.048,535.357,832.828,525.253C819.086,516.128,809.158,506.418,797.769,492.929C783.292,475.783,770.747,441.899,755.779,428.333C745.515,419.031,736.622,415.495,723.618,411.664C706.251,406.548,688.214,406.716,659.296,405.55C599.812,403.152,453.589,415.854,385.93,409.424C345.314,405.565,315.067,401.187,289.447,389.5C269.336,380.325,255.599,367.437,241.206,352.649C225.896,336.919,210.94,315.319,201.005,296.956C192.549,281.326,185.044,265.678,183.167,250.505C181.469,236.783,183.068,223.586,188.058,210.101C194.029,193.964,206.067,178.477,220.403,161.616C239.675,138.948,271.443,110.84,297.487,89.82C321.315,70.589,345.153,53.93,369.849,39.44C393.444,25.595,442.211,4.212,442.211,4.212" stroke="#ffffff" stroke-width="1" fill="none" stroke-linecap="round" stroke-miterlimit="4"></path><path d="M673.635,4C673.635,4,737.029,41.201,763.819,63.966C789.59,85.866,816.64,114.233,832.048,137.374C843.279,154.241,848.676,166.42,854.05,185.859C861.326,212.176,859.385,260.679,865.1,282.828C868.245,295.019,870.409,302.97,876.382,310.154C882.271,317.239,890.582,322.173,900.503,325.795C913.403,330.507,929.876,331.379,948.744,331.856C975.359,332.528,1011.932,328.797,1045.226,324.66C1081.409,320.165,1124.235,312.865,1157.789,305.016C1185.589,298.513,1212.196,291.901,1233.019,282.828C1249.231,275.764,1263.796,269.598,1273.92,258.586C1283.757,247.885,1290.304,235.831,1293.49,218.182C1298.738,189.117,1281.03,134.638,1282.082,96.97C1283.006,63.867,1296.103,4,1296.103,4" stroke="#ffffff" stroke-width="1" fill="none" stroke-linecap="round" stroke-miterlimit="4"></path><path d="M4,511.986C4,511.986,56.094,508.81,80.402,510.374C102.829,511.817,125.121,514.644,144.724,520.069C162.278,524.928,178.206,531.138,192.965,539.923C207.678,548.681,221.495,559.509,233.166,572.66C245.58,586.648,256.881,604.513,264.54,622.222C272.183,639.894,276.852,659.141,279.106,678.788C281.478,699.46,280.828,723.206,277.583,743.434C274.593,762.078,261.637,796,261.637,796" stroke="#ffffff" stroke-width="1" fill="none" stroke-linecap="round" stroke-miterlimit="4"></path><path d="M1596,521.031C1596,521.031,1403.747,546.498,1318.593,551.441C1246.323,555.637,1180.729,556.722,1117.588,552.806C1060.871,549.289,994.239,541.935,956.784,531.674C935.48,525.838,921.521,519.834,908.543,511.044C897.644,503.662,887.869,494.161,882.408,484.848C877.901,477.163,875.54,469.269,875.528,460.606C875.515,450.607,879.212,437.707,884.606,428.283C890.005,418.85,899.132,410.778,907.921,404.04C916.694,397.315,924.625,393.177,937.283,387.879C957.732,379.32,985.472,371.72,1021.106,362.898C1081.84,347.861,1212.712,331.146,1270.352,313.474C1302.458,303.63,1329.376,293.281,1342.989,282.828C1349.924,277.503,1352.788,273.004,1355.54,266.667C1358.555,259.725,1360.057,253.107,1359.432,242.424C1358.164,220.781,1337.056,172.423,1331.953,145.455C1328.405,126.705,1326.99,113.12,1327.19,96.97C1327.39,80.797,1329.429,64.095,1333.168,48.485C1336.847,33.123,1349.28,4,1349.28,4" stroke="#ffffff" stroke-width="1" fill="none" stroke-linecap="round" stroke-miterlimit="4"></path><path d="M282.482,145.455C305.078,121.096,339.398,95.15,369.849,77.322C398.18,60.735,428.262,48.419,458.291,40.241C487.261,32.35,516.625,28.061,546.734,28.245C578.208,28.437,612.463,32.98,643.216,42.535C674.118,52.136,706.371,67.746,731.658,85.852C755.03,102.587,777.619,123.415,791.025,145.455C803.067,165.251,811.08,187.825,811.703,210.101C812.358,233.538,801.608,265.199,792.847,282.828C786.966,294.662,780.303,301.519,771.859,309.389C762.806,317.827,754.213,324.5,739.705,331.313C715.452,342.702,673.221,354.349,635.176,361.327C591.211,369.391,535.104,373.558,490.452,373.394C451.963,373.252,415.387,371.317,382.986,363.636C354.528,356.89,327.959,348.108,305.528,333.15C283.357,318.367,260.053,292.454,248.946,274.747C241.719,263.227,238.645,253.366,237.111,242.424C235.622,231.807,235.342,222.11,239.452,210.101C245.816,191.511,263.564,165.848,282.482,145.455" stroke="#ffffff" stroke-width="1" fill="none" stroke-linecap="round" stroke-miterlimit="4"></path><path d="M4,538.482C4,538.482,44.664,538.034,64.322,540.392C83.511,542.694,103.19,546.339,120.603,552.218C136.853,557.704,152.202,564.653,165.833,573.737C179.229,582.666,191.64,593.183,201.832,606.061C212.723,619.821,222.546,637.885,228.312,654.545C233.752,670.263,236.147,686.845,236.46,703.03C236.772,719.169,234.77,736.046,230.228,751.515C225.67,767.041,209.105,796,209.105,796" stroke="#ffffff" stroke-width="1" fill="none" stroke-linecap="round" stroke-miterlimit="4"></path><path d="M329.648,149.215C346.587,131.169,370.969,113.928,393.97,101.224C416.582,88.734,441.164,79.498,466.332,73.304C492.04,66.977,519.952,63.769,546.734,64.068C573.553,64.368,601.752,68.067,627.136,75.129C651.662,81.952,676.339,91.739,696.745,105.051C716.316,117.817,736.389,135.004,747.739,152.561C757.563,167.759,764.411,184.963,764.514,202.02C764.623,220.225,756.936,242.579,746.086,258.586C734.907,275.077,717.274,287.944,697.558,298.99C673.845,312.276,641.647,321.593,611.055,328.338C578.237,335.573,539.928,339.387,506.533,339.556C475.83,339.713,445.659,337.612,418.09,330.973C392.295,324.76,364.329,313.622,345.729,302.411C332.002,294.139,321.847,284.372,313.568,274.832C306.736,266.959,301.295,260.506,298.058,250.505C293.859,237.529,291.017,217.849,295.222,202.02C300.012,183.987,314.636,165.208,329.648,149.215" stroke="#ffffff" stroke-width="1" fill="none" stroke-linecap="round" stroke-miterlimit="4"></path><path d="M1596,293.186C1596,293.186,1554.523,294.548,1535.678,291.972C1518.556,289.631,1502.199,286.462,1487.437,279.571C1472.727,272.704,1459.923,262.568,1447.236,250.755C1432.929,237.434,1418.254,219.143,1407.035,202.372C1396.524,186.658,1387.136,170.231,1381.247,153.535C1375.677,137.746,1372.241,121.873,1371.8,105.051C1371.326,86.96,1374.19,65.766,1379.772,48.485C1385.01,32.272,1403.208,4,1403.208,4" stroke="#ffffff" stroke-width="1" fill="none" stroke-linecap="round" stroke-miterlimit="4"></path><path d="M1005.379,412.121C1027.31,399.01,1061.414,389.181,1093.467,380.721C1130.145,371.04,1171.905,364.916,1214.07,359.559C1259.983,353.726,1321.73,348.325,1358.794,348.096C1381.897,347.954,1398.118,348.279,1415.075,351.856C1429.843,354.97,1443.184,359.225,1455.276,366.485C1467.552,373.854,1479.679,384.308,1488.058,395.96C1496.432,407.603,1505.461,423.629,1505.547,436.364C1505.624,447.721,1500.778,459.223,1492.071,468.687C1479.74,482.089,1453.317,492.464,1429.717,501.01C1401.937,511.07,1367.877,517.098,1334.673,521.926C1298.917,527.125,1260.07,529.47,1222.111,530.065C1183.323,530.673,1140.228,529.393,1104.374,525.253C1073.746,521.716,1043.342,517.987,1019.915,509.091C1001.222,501.992,981.384,491.331,972.864,481.091C967.483,474.624,965.588,467.075,965.294,460.606C965.035,454.943,966.128,450.189,969.643,444.444C975.608,434.698,989.638,421.533,1005.379,412.121" stroke="#ffffff" stroke-width="1" fill="none" stroke-linecap="round" stroke-miterlimit="4"></path><path d="M4,566.598C4,566.598,39.359,568.172,56.281,571.417C72.845,574.593,90.047,579.423,104.523,585.655C117.535,591.256,128.944,597.541,139.67,606.061C150.875,614.961,162.067,626.234,170.044,638.384C177.99,650.487,184.204,665.026,187.488,678.788C190.638,691.986,191.391,705.845,189.955,719.192C188.492,732.785,184.804,747.027,178.541,759.596C172.006,772.71,150.905,796,150.905,796" stroke="#ffffff" stroke-width="1" fill="none" stroke-linecap="round" stroke-miterlimit="4"></path><path d="M370.17,169.697C381.132,154.906,400.58,140.268,418.09,129.857C435.356,119.59,454.649,112.574,474.372,107.424C494.782,102.095,517.235,99.222,538.693,98.915C560.116,98.608,582.243,100.506,603.015,105.558C623.829,110.62,646.67,118.922,663.446,129.293C677.915,138.238,691.16,148.988,699.338,161.616C707.004,173.455,712.802,188.632,712.355,202.02C711.904,215.57,704.822,230.955,696.296,242.424C687.41,254.378,674.116,263.496,659.296,271.774C641.458,281.738,617.361,289.713,594.975,295.123C571.862,300.71,546.052,303.721,522.613,304.294C500.57,304.834,478.76,303.55,458.291,299.322C438.635,295.262,417.981,288.963,402.01,280.029C387.907,272.14,374.382,262.511,366.224,250.505C358.419,239.019,352.591,223.463,353.164,210.101C353.746,196.524,360.976,182.102,370.17,169.697" stroke="#ffffff" stroke-width="1" fill="none" stroke-linecap="round" stroke-miterlimit="4"></path><path d="M1096.274,428.283C1107.378,421.863,1121.09,416.531,1138.828,412.121C1166.18,405.322,1212.18,398.488,1246.231,398.697C1277.155,398.887,1314.452,403.208,1334.673,410.854C1346.684,415.396,1355.813,421.597,1360.904,428.283C1364.646,433.197,1367.057,438.881,1366.213,444.444C1365.157,451.41,1357.821,460.247,1350.754,466.173C1342.588,473.02,1333.008,477.196,1318.593,481.439C1292.853,489.016,1242.847,496.223,1206.03,496.08C1170.534,495.943,1123.612,489.651,1101.508,481.662C1090.038,477.517,1081.337,473.444,1077.387,466.655C1073.893,460.65,1073.692,450.701,1076.508,444.444C1079.526,437.739,1087.957,433.091,1096.274,428.283" stroke="#ffffff" stroke-width="1" fill="none" stroke-linecap="round" stroke-miterlimit="4"></path><path d="M1596,245.555C1596,245.555,1560.541,241.863,1543.719,237.187C1527.044,232.551,1510.279,226.249,1495.477,217.715C1480.824,209.267,1466.27,197.782,1455.276,186.362C1445.483,176.189,1437.641,165.578,1431.626,153.535C1425.474,141.219,1420.784,126.755,1419.033,113.131C1417.321,99.812,1417.88,85.926,1420.911,72.727C1424.07,58.967,1430.763,44.056,1438.227,32.323C1445.139,21.459,1463.317,4.196,1463.317,4.196" stroke="#ffffff" stroke-width="1" fill="none" stroke-linecap="round" stroke-miterlimit="4"></path><path d="M4,598.987C4,598.987,34.086,602.377,48.241,606.57C62.218,610.71,76.788,616.719,88.442,623.861C98.919,630.281,108.014,637.486,115.639,646.465C123.488,655.708,130.72,667.614,134.607,678.788C138.234,689.215,139.892,700.072,139.125,711.111C138.295,723.061,134.272,736.975,128.643,747.891C123.206,758.434,115.374,767.861,106.358,775.758C96.906,784.036,72.766,796,72.766,796" stroke="#ffffff" stroke-width="1" fill="none" stroke-linecap="round" stroke-miterlimit="4"></path><path d="M450.251,171.629C457.047,165.283,463.654,160.561,474.372,156.27C491.585,149.38,526.09,142.598,546.734,142.012C562.047,141.577,574.515,144.079,586.935,147.585C598.467,150.841,610.423,155.876,618.993,161.616C625.981,166.297,631.864,171.217,635.736,177.778C639.758,184.592,643.07,194.088,642.271,202.02C641.442,210.262,635.825,219.539,630.14,226.263C624.425,233.022,616.735,237.829,608.017,242.424C597.562,247.935,584.242,252.554,570.854,255.538C556.005,258.849,537.941,260.691,522.613,260.353C508.583,260.044,494.805,258.291,482.412,254.542C470.808,251.031,458.655,245.941,450.251,239.243C442.954,233.428,436.269,225.963,433.6,218.182C431.064,210.788,431.284,201.476,433.796,193.939C436.483,185.88,443.56,177.877,450.251,171.629" stroke="#ffffff" stroke-width="1" fill="none" stroke-linecap="round" stroke-miterlimit="4"></path><path d="M1596,205.182C1596,205.182,1564.27,199.451,1549.946,193.939C1536.204,188.652,1522.618,181.637,1511.558,173.205C1501.181,165.293,1491.702,155.752,1485.011,145.455C1478.628,135.633,1473.836,124.123,1471.753,113.131C1469.75,102.558,1469.883,91.345,1472.231,80.808C1474.69,69.773,1480.218,58.01,1486.809,48.485C1493.352,39.029,1501.894,30.994,1511.558,23.813C1522.121,15.962,1548.316,4,1548.316,4" stroke="#ffffff" stroke-width="1" fill="none" stroke-linecap="round" stroke-miterlimit="4"></path><path d="M4,643.631C4,643.631,36.949,652.832,48.241,662.902C59.311,672.774,70.528,689.391,71.491,703.03C72.425,716.251,65.028,732.861,55.16,743.434C43.884,755.516,4,768.34,4,768.34" stroke="#ffffff" stroke-width="1" fill="none" stroke-linecap="round" stroke-miterlimit="4"></path><path d="M1596,155.405C1596,155.405,1561.614,140.394,1552.335,129.293C1544.69,120.146,1539.904,107.695,1540.148,96.97C1540.394,86.145,1546.13,73.847,1554.044,64.646C1563.421,53.745,1596,38.573,1596,38.573" stroke="#ffffff" stroke-width="1" fill="none" stroke-linecap="round" stroke-miterlimit="4"></path></svg>